Coordinates
version=1
nRows=14
nColumns=24
inDegrees=yes

Units are S.I. units (second, meters, Newtons, ...)
Angles are in degrees.

endheader
time	torso_tilt	torso_list	torso_rotation	torso_tx	torso_ty	torso_tz	lumbar_extension	lumbar_bending	lumbar_rotation	hip_flexion_r	hip_adduction_r	hip_rotation_r	knee_angle_r	ankle_angle_r	subtalar_angle_r	mtp_angle_r	hip_flexion_l	hip_adduction_l	hip_rotation_l	knee_angle_l	ankle_angle_l	subtalar_angle_l	mtp_angle_l
     13.81000000	    -46.50085267	      2.88955275	      1.22238521	      0.00312838	      0.75222338	      0.00011598	     21.15227241	     -1.56471621	     -0.60011851	     82.40894655	    -11.96593595	     -3.54677131	    -96.09292068	     38.64824520	      8.28455426	      0.00000000	     84.62229525	     -9.67745422	     -5.08169720	    -93.21540053	     37.10570122	      7.78643588	      0.00000000
     13.82000000	    -47.03754175	      2.86021012	      1.06260560	      0.00230381	      0.74716374	      0.00000635	     21.18955952	     -1.49241520	     -0.46818267	     83.62136746	    -11.97273157	     -3.44485478	    -96.93501425	     38.75636473	      8.27056287	      0.00000000	     85.88599087	     -9.73141428	     -4.95191789	    -94.06699297	     37.21827922	      7.73899590	      0.00000000
     13.83000000	    -47.57424501	      2.84453089	      0.92465811	      0.00153754	      0.74204553	     -0.00013539	     21.21214250	     -1.40986427	     -0.38374552	     84.85532034	    -11.94822530	     -3.29810919	    -97.77435131	     38.84934503	      8.24764709	      0.00000000	     87.14694340	     -9.79470991	     -4.84755440	    -94.91169222	     37.34466470	      7.70563634	      0.00000000
     13.84000000	    -48.09980383	      2.83945297	      0.80657612	      0.00085582	      0.73723984	     -0.00029731	     21.24068488	     -1.34083060	     -0.30472910	     86.03189485	    -11.94170110	     -3.15998412	    -98.54255032	     38.93315106	      8.23388347	      0.00000000	     88.34048919	     -9.84837112	     -4.76393764	    -95.69044868	     37.44619971	      7.65056039	      0.00000000
     13.85000000	    -48.62520028	      2.83919185	      0.65600769	      0.00008735	      0.73250607	     -0.00047674	     21.32772136	     -1.27240332	     -0.21147774	     87.13672161	    -11.90514414	     -3.03188638	    -99.29218483	     39.03949764	      8.20308955	      0.00000000	     89.46999215	     -9.90345804	     -4.66271272	    -96.47146420	     37.60433243	      7.54123148	      0.00000000
     13.86000000	    -49.11406484	      2.82709439	      0.56526514	     -0.00057754	      0.72781975	     -0.00064526	     21.35668530	     -1.24625686	     -0.11187829	     88.23322279	    -11.93474738	     -2.95003454	   -100.03139582	     39.08904145	      8.15579213	      0.00000000	     90.61911185	     -9.87408182	     -4.50968229	    -97.22390745	     37.69701645	      7.45914617	      0.00000000
     13.87000000	    -49.53880946	      2.79325588	      0.39259885	     -0.00119507	      0.72312923	     -0.00087108	     21.29190287	     -1.04994160	      0.08528791	     89.41005899	    -12.06212141	     -2.75238840	   -100.78062497	     39.12470388	      8.17371792	      0.00000000	     91.75806784	     -9.72460663	     -4.46688596	    -97.93178762	     37.69303037	      7.25636273	      0.00000000
     13.88000000	    -50.02304444	      2.82180822	      0.28030431	     -0.00183936	      0.71881796	     -0.00120463	     21.38047052	     -1.10358008	      0.28237362	     90.37273338	    -12.18145330	     -2.74583501	   -101.45181847	     39.20614684	      8.17359351	      0.00000000	     92.81728435	     -9.61070519	     -4.28089872	    -98.61565827	     37.74551875	      7.10165790	      0.00000000
     13.89000000	    -50.51043463	      2.85193681	      0.18284476	     -0.00255373	      0.71443957	     -0.00152960	     21.49762788	     -1.15575920	      0.48858112	     91.32276324	    -12.33217447	     -2.72992539	   -102.14635261	     39.28601005	      8.17245601	      0.00000000	     93.84767042	     -9.46240703	     -4.10292138	    -99.29209423	     37.79247196	      6.93848160	      0.00000000
     13.90000000	    -50.99162191	      2.88189817	      0.14282313	     -0.00332814	      0.71010239	     -0.00182088	     21.65755601	     -1.23715087	      0.63994592	     92.20193080	    -12.46401117	     -2.72030864	   -102.82728644	     39.37702837	      8.14538715	      0.00000000	     94.81982171	     -9.32979075	     -3.93230232	    -99.96501134	     37.85291028	      6.82093959	      0.00000000
     13.91000000	    -51.47981720	      2.91525428	      0.07926421	     -0.00409759	      0.70610905	     -0.00214975	     21.90389615	     -1.30592460	      0.79860804	     92.96517541	    -12.59329968	     -2.71427079	   -103.46216308	     39.46094593	      8.13650613	      0.00000000	     95.66521877	     -9.21864294	     -3.78513290	   -100.58789984	     37.94808813	      6.68895461	      0.00000000
     13.92000000	    -51.94521922	      2.94256277	      0.01400183	     -0.00480936	      0.70213589	     -0.00242155	     22.12117680	     -1.33460009	      0.87146741	     93.73943573	    -12.63066045	     -2.67568565	   -104.07001527	     39.54116098	      8.12885488	      0.00000000	     96.50506146	     -9.23268869	     -3.69765716	   -101.22193326	     37.99033627	      6.57844163	      0.00000000
     13.93000000	    -52.33093876	      2.95256201	     -0.03363881	     -0.00523882	      0.69785106	     -0.00267941	     22.12655355	     -1.44278242	      0.78888335	     94.63329024	    -12.49432739	     -2.72364713	   -104.66795363	     39.60151162	      8.08584641	      0.00000000	     97.53761838	     -9.46075300	     -3.54019407	   -101.92541194	     38.05984580	      6.59815838	      0.00000000
     13.94000000	    -52.80868912	      2.94385977	     -0.08717248	     -0.00609857	      0.69419865	     -0.00280605	     22.50089279	     -1.37543560	      0.76333977	     95.24754616	    -12.45829261	     -2.64714388	   -105.24532452	     39.66869221	      8.07676741	      0.00000000	     98.14601298	     -9.65068947	     -3.58673155	   -102.51912446	     38.18597064	      6.57722376	      0.00000000
